<svg version="1.1" id="Layer_1" xmlns="http://www.w3.org/2000/svg" xmlns:xlink="http://www.w3.org/1999/xlink" x="0px" y="0px"
	 width="100%" viewBox="0 0 512 512" enable-background="new 0 0 512 512" xml:space="preserve">
<path fill="#FFFFFF" opacity="1.000000" stroke="none" 
	d="
M229.000000,0.999998 
	C247.354233,1.000000 265.708466,1.000000 284.229279,1.369334 
	C285.234711,2.158086 286.035431,2.821388 286.918243,2.959303 
	C296.041168,4.384521 305.363647,4.986469 314.273438,7.233486 
	C336.996216,12.964074 359.003052,20.709902 379.644531,32.127617 
	C400.802612,43.831100 420.077789,58.060806 437.226166,74.978661 
	C445.804657,83.441818 453.318329,93.036278 460.881683,102.465500 
	C476.502228,121.939697 488.284790,143.707245 496.849152,167.055756 
	C503.950470,186.415604 509.514557,206.284424 511.080750,227.037399 
	C511.133484,227.735901 512.334351,228.347748 513.000000,229.000000 
	C513.000000,247.354233 513.000000,265.708466 512.630676,284.229309 
	C511.841949,285.234711 511.178589,286.035431 511.040680,286.918243 
	C509.615448,296.041168 509.013550,305.363647 506.766510,314.273438 
	C501.035919,336.996216 493.290070,359.003052 481.872375,379.644531 
	C470.168884,400.802612 455.939178,420.077820 439.021301,437.226196 
	C430.558167,445.804657 420.963745,453.318329 411.534485,460.881653 
	C392.060303,476.502167 370.292755,488.284729 346.944244,496.849091 
	C327.584381,503.950409 307.715576,509.514557 286.962585,511.080780 
	C286.264099,511.133514 285.652222,512.334290 285.000000,513.000000 
	C266.645782,513.000000 248.291550,513.000000 229.770721,512.630676 
	C228.765411,511.841919 227.964828,511.178558 227.082138,511.040680 
	C217.959167,509.615479 208.636658,509.013733 199.726868,506.766602 
	C177.004181,501.035797 154.997208,493.290344 134.355728,481.872528 
	C113.197624,470.168945 93.922302,455.939331 76.773895,439.021393 
	C68.195404,430.558258 60.681709,420.963806 53.118355,411.534607 
	C37.497780,392.060394 25.715250,370.292816 17.150867,346.944275 
	C10.049541,327.584412 4.485407,307.715576 2.919268,286.962555 
	C2.866553,286.264069 1.665692,285.652222 1.000004,285.000000 
	C1.000000,266.645782 1.000000,248.291550 1.369324,229.770706 
	C2.158069,228.765274 2.821386,227.964569 2.959301,227.081772 
	C4.384524,217.958817 4.986492,208.636383 7.233498,199.726547 
	C12.964050,177.003769 20.709898,154.996948 32.127605,134.355484 
	C43.831074,113.197380 58.060799,93.922180 74.978661,76.773781 
	C83.441803,68.195320 93.036263,60.681648 102.465492,53.118309 
	C121.939682,37.497757 143.707245,25.715229 167.055756,17.150850 
	C186.415588,10.049541 206.284409,4.485419 227.037384,2.919257 
	C227.735886,2.866545 228.347748,1.665681 229.000000,0.999998 
M187.930222,218.427124 
	C188.320862,209.513733 187.755768,200.432663 189.284485,191.718933 
	C193.571518,167.282745 205.482178,147.630280 227.778107,135.277420 
	C230.020416,134.035095 232.297302,132.855118 234.558136,131.646194 
	C191.225525,134.863800 124.383385,181.047943 128.690430,264.252563 
	C132.143219,330.954010 189.541794,389.233795 265.315308,384.069885 
	C336.896545,379.191681 388.911041,318.205811 384.107269,247.299255 
	C381.665131,211.252136 365.984863,181.096771 338.069336,157.881226 
	C320.294769,143.099274 300.167694,133.176224 276.818359,131.019226 
	C300.526367,141.342728 312.262756,156.714767 319.778839,177.276688 
	C325.840485,193.859665 326.964447,210.915802 323.177277,228.291412 
	C319.083496,247.073669 310.419586,263.129242 295.406616,275.335632 
	C272.870728,293.658600 241.469711,294.212494 218.456177,276.113739 
	C200.005615,261.603455 191.120987,242.016052 187.930222,218.427124 
z"/>
<path fill="#000000" opacity="1.000000" stroke="none" 
	d="
M228.531342,0.999998 
	C228.347748,1.665681 227.735886,2.866545 227.037384,2.919257 
	C206.284409,4.485419 186.415588,10.049541 167.055756,17.150850 
	C143.707245,25.715229 121.939682,37.497757 102.465492,53.118309 
	C93.036263,60.681648 83.441803,68.195320 74.978661,76.773781 
	C58.060799,93.922180 43.831074,113.197380 32.127605,134.355484 
	C20.709898,154.996948 12.964050,177.003769 7.233498,199.726547 
	C4.986492,208.636383 4.384524,217.958817 2.959301,227.081772 
	C2.821386,227.964569 2.158069,228.765274 1.369324,229.302048 
	C1.000000,153.072952 1.000000,77.145912 1.000000,1.000000 
	C76.687424,1.000000 152.375046,1.000000 228.531342,0.999998 
z"/>
<path fill="#000000" opacity="1.000000" stroke="none" 
	d="
M513.000000,228.531342 
	C512.334351,228.347748 511.133484,227.735901 511.080750,227.037399 
	C509.514557,206.284424 503.950470,186.415604 496.849152,167.055756 
	C488.284790,143.707245 476.502228,121.939697 460.881683,102.465500 
	C453.318329,93.036278 445.804657,83.441818 437.226166,74.978661 
	C420.077789,58.060806 400.802612,43.831100 379.644531,32.127617 
	C359.003052,20.709902 336.996216,12.964074 314.273438,7.233486 
	C305.363647,4.986469 296.041168,4.384521 286.918243,2.959303 
	C286.035431,2.821388 285.234711,2.158086 284.697937,1.369334 
	C360.927032,1.000000 436.854095,1.000000 513.000000,1.000000 
	C513.000000,76.687424 513.000000,152.375046 513.000000,228.531342 
z"/>
<path fill="#000000" opacity="1.000000" stroke="none" 
	d="
M1.000004,285.468658 
	C1.665692,285.652222 2.866553,286.264069 2.919268,286.962555 
	C4.485407,307.715576 10.049541,327.584412 17.150867,346.944275 
	C25.715250,370.292816 37.497780,392.060394 53.118355,411.534607 
	C60.681709,420.963806 68.195404,430.558258 76.773895,439.021393 
	C93.922302,455.939331 113.197624,470.168945 134.355728,481.872528 
	C154.997208,493.290344 177.004181,501.035797 199.726868,506.766602 
	C208.636658,509.013733 217.959167,509.615479 227.082138,511.040680 
	C227.964828,511.178558 228.765411,511.841919 229.302063,512.630676 
	C153.072968,513.000000 77.145927,513.000000 1.000000,513.000000 
	C1.000000,437.312592 1.000000,361.624939 1.000004,285.468658 
z"/>
<path fill="#000000" opacity="1.000000" stroke="none" 
	d="
M285.468658,513.000000 
	C285.652222,512.334290 286.264099,511.133514 286.962585,511.080780 
	C307.715576,509.514557 327.584381,503.950409 346.944244,496.849091 
	C370.292755,488.284729 392.060303,476.502167 411.534485,460.881653 
	C420.963745,453.318329 430.558167,445.804657 439.021301,437.226196 
	C455.939178,420.077820 470.168884,400.802612 481.872375,379.644531 
	C493.290070,359.003052 501.035919,336.996216 506.766510,314.273438 
	C509.013550,305.363647 509.615448,296.041168 511.040680,286.918243 
	C511.178589,286.035431 511.841949,285.234711 512.630676,284.697937 
	C513.000000,360.927032 513.000000,436.854095 513.000000,513.000000 
	C437.312592,513.000000 361.624939,513.000000 285.468658,513.000000 
z"/>
<path fill="#900D22" opacity="1.000000" stroke="none" 
	d="
M187.959564,218.871674 
	C191.120987,242.016052 200.005615,261.603455 218.456177,276.113739 
	C241.469711,294.212494 272.870728,293.658600 295.406616,275.335632 
	C310.419586,263.129242 319.083496,247.073669 323.177277,228.291412 
	C326.964447,210.915802 325.840485,193.859665 319.778839,177.276688 
	C312.262756,156.714767 300.526367,141.342728 276.818359,131.019226 
	C300.167694,133.176224 320.294769,143.099274 338.069336,157.881226 
	C365.984863,181.096771 381.665131,211.252136 384.107269,247.299255 
	C388.911041,318.205811 336.896545,379.191681 265.315308,384.069885 
	C189.541794,389.233795 132.143219,330.954010 128.690430,264.252563 
	C124.383385,181.047943 191.225525,134.863800 234.558136,131.646194 
	C232.297302,132.855118 230.020416,134.035095 227.778107,135.277420 
	C205.482178,147.630280 193.571518,167.282745 189.284485,191.718933 
	C187.755768,200.432663 188.320862,209.513733 187.959564,218.871674 
z"/>
</svg>